<svg id="Layer_1" data-name="Layer 1" xmlns="http://www.w3.org/2000/svg" width="256" height="139" viewBox="0 0 256 139"><title>snail</title><path d="M236.8,6.4a13.3,13.3,0,0,0-13.2,13.2,13.7,13.7,0,0,0,6.4,11.5l-8.4,26.5a34.7,34.7,0,0,0-4.3-1l-5.3-20.4a13.3,13.3,0,1,0-19.6-11.7,13.5,13.5,0,0,0,13.2,13.2h.3l5.1,19.1c-8.4,2-15.3,9.9-21.6,17.1s-14,15.8-22.4,17.1c-2-22.9-9.7-41-22.9-54C122.4,16,94.7,16.3,93.7,16.3A60.2,60.2,0,0,0,33.6,76.4a43.1,43.1,0,0,0,12.5,30.3C25.2,112.8,12,119.9,6.6,127.5a3.2,3.2,0,0,0,2.5,5.1H222.5a3.3,3.3,0,0,0,3.1-2.8,3.3,3.3,0,0,0-2.3-3.6c-5.3-1.5-13.7-5.3-15.5-8.9a2.2,2.2,0,0,1,0-1.8c.8-1.8,3.8-5.6,7.1-9.4,8.7-10.2,20.4-24.4,18.8-35.6a14.3,14.3,0,0,0-6.6-10.2h-.3l8.9-27.5h1a13.2,13.2,0,1,0,0-26.5ZM198.3,24.4a7.1,7.1,0,0,1,7.1-7.1,7,7,0,1,1,0,14A7.1,7.1,0,0,1,198.3,24.4ZM93.4,22.9h0c2.3,0,27,.5,45.6,18.8,13.7,13.5,20.9,33.4,21.6,58.8H111.8a42.9,42.9,0,0,0,7.4-23.9,26,26,0,0,0-51.9,0,3.1,3.1,0,0,0,3.1,3.1,3.3,3.3,0,0,0,3.1-3.1,19.6,19.6,0,0,1,39.2,0,36.7,36.7,0,1,1-73.3,0A54.3,54.3,0,0,1,93.4,22.9ZM227.6,71.5c1.3,8.7-9.9,21.9-17.3,30.8-3.8,4.6-6.9,8.1-7.9,10.7a7.8,7.8,0,0,0,0,7.1,17.2,17.2,0,0,0,5.9,6.4H16.8c6.9-5.1,18.8-10.2,34.9-14.5a42.6,42.6,0,0,0,54.7-5.1h57.3a3.1,3.1,0,0,0,3.1-3.1,53.2,53.2,0,0,0-.3-6.4c10.9-1.5,19.3-10.9,27-19.3,11.2-12.7,18.6-19.9,30-12.2A7,7,0,0,1,227.6,71.5Zm9.2-44.8a7.1,7.1,0,0,1-7.1-7.1,7.1,7.1,0,0,1,14.3,0A7.1,7.1,0,0,1,236.8,26.7Z" fill="#fff"/></svg>